<?xml version="1.0" encoding="UTF-8"?>
<svg xmlns="http://www.w3.org/2000/svg" xmlns:xlink="http://www.w3.org/1999/xlink" width="11px" height="9px" viewBox="0 0 10 9" version="1.1">
<g id="surface1">
<path style=" stroke:none;fill-rule:nonzero;fill:rgb(0%,0%,0%);fill-opacity:1;" d="M 10 5.941406 L 5.8125 4.046875 L 5.8125 0.253906 C 5.890625 0.171875 5.8125 0.171875 5.738281 0.171875 L 3.796875 1.078125 C 3.796875 1.078125 3.722656 1.160156 3.722656 1.160156 L 3.722656 3.058594 L 1.472656 2.066406 C 1.472656 2.066406 1.394531 2.066406 1.394531 2.066406 L 0.078125 2.644531 C 0 2.726562 0 2.808594 0.078125 2.808594 L 3.722656 4.457031 L 3.722656 8.746094 C 3.722656 8.828125 3.796875 8.828125 3.875 8.828125 L 5.8125 7.921875 C 5.8125 7.921875 5.890625 7.839844 5.890625 7.839844 L 5.890625 5.449219 L 8.527344 6.683594 C 8.527344 6.683594 8.605469 6.683594 8.605469 6.683594 L 10 6.109375 C 10.078125 6.109375 10.078125 5.941406 10 5.941406 Z M 10 5.941406 "/>
</g>
</svg>
