<svg id="Слой_1" data-name="Слой 1" xmlns="http://www.w3.org/2000/svg" viewBox="0 0 289.06 145.8"><defs><style>.cls-1{fill:#a873ff;}.cls-2{fill:none;stroke:#a873ff;stroke-linecap:round;stroke-miterlimit:10;stroke-width:7px;}.cls-3{fill:#fff;}</style></defs><title>logo Risk AI</title><rect class="cls-1" x="154.85" y="11.59" width="122.62" height="122.62" rx="13.74" ry="13.74"/><line class="cls-2" x1="176.68" y1="23.08" x2="176.68" y2="3.5"/><line class="cls-2" x1="215.49" y1="23.08" x2="215.49" y2="3.5"/><line class="cls-2" x1="254.31" y1="23.08" x2="254.31" y2="3.5"/><line class="cls-2" x1="176.68" y1="142.3" x2="176.68" y2="122.72"/><line class="cls-2" x1="215.49" y1="142.3" x2="215.49" y2="122.72"/><line class="cls-2" x1="254.31" y1="142.3" x2="254.31" y2="122.72"/><line class="cls-2" x1="166.34" y1="111.71" x2="146.76" y2="111.71"/><line class="cls-2" x1="166.34" y1="72.9" x2="146.76" y2="72.9"/><line class="cls-2" x1="166.34" y1="34.08" x2="146.76" y2="34.08"/><line class="cls-2" x1="285.56" y1="111.71" x2="265.98" y2="111.71"/><line class="cls-2" x1="285.56" y1="72.9" x2="265.98" y2="72.9"/><line class="cls-2" x1="285.56" y1="34.08" x2="265.98" y2="34.08"/><path class="cls-3" d="M212.44,48.2,226.9,89.27a13,13,0,0,1,.88,4.1c0,3.7-2.81,6.11-6.43,6.11-3.38,0-5.46-2.09-6.83-6.35L212.92,88H191.78l-1.93,5.63c-1.21,3.62-3.46,5.87-6.27,5.87a6,6,0,0,1-6.19-6.27,10.1,10.1,0,0,1,.64-3.78l14.87-40.34c2.09-5.71,5.14-8.44,10-8.44C207.3,40.65,210.67,43.3,212.44,48.2Zm-3.38,27.73-6.51-21.14-7.07,21.14Z"/><path class="cls-3" d="M246.6,49.89V90.23c0,6.19-2.09,9.24-6.51,9.24s-6.51-3.05-6.51-9.24V49.89c0-6.19,2.09-9.24,6.51-9.24S246.6,43.7,246.6,49.89Z"/><path class="cls-1" d="M17.2,41.87c8.84,0,17,6.11,17,17.12,0,10.61-8.28,14.79-18.57,14.79L34,93.87A4.52,4.52,0,0,1,35.44,97c0,1.53-1.69,2.65-3.29,2.65A4.36,4.36,0,0,1,28.85,98L7,74V96.2a3.31,3.31,0,0,1-3.54,3.46A3.42,3.42,0,0,1,0,96V45.65a3.46,3.46,0,0,1,3.46-3.78ZM7,68.39H17c6.43,0,10.29-3.3,10.29-10.37,0-5.87-4.5-10-10.61-10H7Z"/><path class="cls-1" d="M50.88,45.81a4.42,4.42,0,0,1-8.84,0,4.51,4.51,0,0,1,4.42-4.42A4.46,4.46,0,0,1,50.88,45.81ZM50,59.47V96a3.5,3.5,0,1,1-7,0V59.63a3.51,3.51,0,0,1,3.46-3.78A3.4,3.4,0,0,1,50,59.47Z"/><path class="cls-1" d="M88.17,63.41A3.31,3.31,0,0,1,85,66.55c-1.61,0-7.55-4.58-10.85-4.58-4.34,0-7.72,2-7.72,5.38,0,3.05,3.54,5.3,9.56,7.31,7.55,2.57,13,5.14,13,12.46,0,7.47-7,12.54-15.59,12.54-8.28,0-15.91-4.42-15.91-8.2a3.12,3.12,0,0,1,3.05-3.13c3.21,0,6.19,5.22,12.7,5.22,3.86,0,8.76-1.45,8.76-5.87,0-3.86-4.9-6-10.29-8-6.51-2.41-12.3-5.14-12.3-11.89s6.11-11.89,14-11.89C78.52,55.86,88.17,58.43,88.17,63.41Z"/><path class="cls-1" d="M103.6,40.75V71l16.23-13.66c1.45-1.21,2.25-1.53,3.29-1.53,1.85,0,3,1.37,3,3.29a3.09,3.09,0,0,1-1.29,2.49L108.18,74.82l18.65,18.32a4.77,4.77,0,0,1,1.61,3.7,2.79,2.79,0,0,1-3,2.81,5,5,0,0,1-3.62-1.77l-18.24-19V96a3.5,3.5,0,1,1-7,0V40.59a3.5,3.5,0,0,1,7,.16Z"/></svg>