<svg id="Слой_1" data-name="Слой 1" xmlns="http://www.w3.org/2000/svg" viewBox="0 0 233.38 63.26"><defs><style>.cls-1{fill:none;stroke:#0086fd;stroke-linecap:round;stroke-miterlimit:10;stroke-width:2px;}.cls-2{fill:#0086fd;}</style></defs><title>logo</title><path class="cls-1" d="M198.22,11l14.47,41.07a13,13,0,0,1,.88,4.1c0,3.7-2.81,6.11-6.43,6.11-3.38,0-5.46-2.09-6.83-6.35l-1.61-5.14H177.57l-1.93,5.63c-1.21,3.62-3.46,5.87-6.27,5.87A6,6,0,0,1,163.18,56a10.1,10.1,0,0,1,.64-3.78l14.87-40.34c2.09-5.71,5.14-8.44,10-8.44C193.08,3.44,196.45,6.09,198.22,11Zm-3.38,27.73-6.51-21.14-7.07,21.14Z"/><path class="cls-1" d="M232.38,12.68V53c0,6.19-2.09,9.24-6.51,9.24s-6.51-3.05-6.51-9.24V12.68c0-6.19,2.09-9.24,6.51-9.24S232.38,6.49,232.38,12.68Z"/><path class="cls-2" d="M33.19,9.89V41.07h3.7A3.17,3.17,0,0,1,40,44.36c0,1.77-1.37,2.81-3.46,2.81H33.19V58.67a3.5,3.5,0,1,1-7,.16V47.18H3.46c-2.09,0-3.46-.72-3.46-2a10.9,10.9,0,0,1,1.69-4.1L22.42,7.47c1.69-2.73,2.89-3.29,5.46-3.29C31.34,4.18,33.19,6.51,33.19,9.89Zm-7,1.85H26L9.24,41.07h17Z"/><path class="cls-2" d="M82.86,32.47c0,13.18-4.66,30-18.81,30-14.95,0-19-17.36-19-30.14,0-11.57,5.22-28.13,19-28.13S82.86,20.57,82.86,32.47Zm-30.3.16c0,8.44,1.61,23.71,11.49,23.71,9,0,11.25-13.74,11.25-22.34,0-9.8-1.69-23.71-11.57-23.71C55,10.29,52.56,24.35,52.56,32.63Z"/><path class="cls-2" d="M91.3,10.77A3.2,3.2,0,0,1,88,7.8a3.17,3.17,0,0,1,3.46-3.13h11.81c1.69,0,2.25.8,2.25,2.33V58.67c0,2.25-1.29,3.78-3.54,3.78a3.56,3.56,0,0,1-3.46-3.78V10.77Z"/><path class="cls-2" d="M125.38,3.54v30.3l16.23-13.66c1.45-1.21,2.25-1.53,3.29-1.53,1.85,0,3,1.37,3,3.29a3.09,3.09,0,0,1-1.29,2.49L130,37.61l18.65,18.32a4.77,4.77,0,0,1,1.61,3.7,2.79,2.79,0,0,1-3,2.81,5,5,0,0,1-3.62-1.77l-18.24-19V58.83a3.5,3.5,0,1,1-7,0V3.38a3.5,3.5,0,0,1,7,.16Z"/></svg>