<svg id="Слой_1" data-name="Слой 1" xmlns="http://www.w3.org/2000/svg" viewBox="0 0 310.84 145.8"><defs><style>.cls-1{fill:#0086fd;}.cls-2{fill:none;stroke:#0086fd;stroke-linecap:round;stroke-miterlimit:10;stroke-width:7px;}.cls-3{fill:#fff;}</style></defs><title>logo</title><rect class="cls-1" x="176.63" y="11.59" width="122.62" height="122.62" rx="13.74" ry="13.74"/><line class="cls-2" x1="198.46" y1="23.08" x2="198.46" y2="3.5"/><line class="cls-2" x1="237.27" y1="23.08" x2="237.27" y2="3.5"/><line class="cls-2" x1="276.09" y1="23.08" x2="276.09" y2="3.5"/><line class="cls-2" x1="198.46" y1="142.3" x2="198.46" y2="122.72"/><line class="cls-2" x1="237.27" y1="142.3" x2="237.27" y2="122.72"/><line class="cls-2" x1="276.09" y1="142.3" x2="276.09" y2="122.72"/><line class="cls-2" x1="188.12" y1="111.71" x2="168.54" y2="111.71"/><line class="cls-2" x1="188.12" y1="72.9" x2="168.54" y2="72.9"/><line class="cls-2" x1="188.12" y1="34.08" x2="168.54" y2="34.08"/><line class="cls-2" x1="307.34" y1="111.71" x2="287.76" y2="111.71"/><line class="cls-2" x1="307.34" y1="72.9" x2="287.76" y2="72.9"/><line class="cls-2" x1="307.34" y1="34.08" x2="287.76" y2="34.08"/><path class="cls-3" d="M234.22,48.2l14.47,41.07a13,13,0,0,1,.88,4.1c0,3.7-2.81,6.11-6.43,6.11-3.38,0-5.46-2.09-6.83-6.35L234.7,88H213.57l-1.93,5.63c-1.21,3.62-3.46,5.87-6.27,5.87a6,6,0,0,1-6.19-6.27,10.1,10.1,0,0,1,.64-3.78l14.87-40.34c2.09-5.71,5.14-8.44,10-8.44C229.08,40.65,232.45,43.3,234.22,48.2Zm-3.38,27.73-6.51-21.14-7.07,21.14Z"/><path class="cls-3" d="M268.38,49.89V90.23c0,6.19-2.09,9.24-6.51,9.24s-6.51-3.05-6.51-9.24V49.89c0-6.19,2.09-9.24,6.51-9.24S268.38,43.7,268.38,49.89Z"/><path class="cls-1" d="M33.19,47.1V78.28h3.7A3.17,3.17,0,0,1,40,81.57c0,1.77-1.37,2.81-3.46,2.81H33.19V95.88a3.5,3.5,0,1,1-7,.16V84.39H3.46c-2.09,0-3.46-.72-3.46-2a10.9,10.9,0,0,1,1.69-4.1L22.42,44.68c1.69-2.73,2.89-3.29,5.46-3.29C31.34,41.39,33.19,43.72,33.19,47.1Zm-7,1.85H26L9.24,78.28h17Z"/><path class="cls-1" d="M82.86,69.68c0,13.18-4.66,30-18.81,30-14.95,0-19-17.36-19-30.14,0-11.57,5.22-28.13,19-28.13S82.86,57.79,82.86,69.68Zm-30.3.16c0,8.44,1.61,23.71,11.49,23.71,9,0,11.25-13.74,11.25-22.34,0-9.8-1.69-23.71-11.57-23.71C55,47.5,52.56,61.56,52.56,69.84Z"/><path class="cls-1" d="M91.3,48a3.07,3.07,0,1,1,.16-6.11h11.81c1.69,0,2.25.8,2.25,2.33V95.88c0,2.25-1.29,3.78-3.54,3.78a3.56,3.56,0,0,1-3.46-3.78V48Z"/><path class="cls-1" d="M125.38,40.75V71l16.23-13.66c1.45-1.21,2.25-1.53,3.29-1.53,1.85,0,3,1.37,3,3.29a3.09,3.09,0,0,1-1.29,2.49L130,74.82l18.65,18.32a4.77,4.77,0,0,1,1.61,3.7,2.79,2.79,0,0,1-3,2.81,5,5,0,0,1-3.62-1.77l-18.24-19V96a3.5,3.5,0,1,1-7,0V40.59a3.5,3.5,0,0,1,7,.16Z"/></svg>