<svg id="Слой_1" data-name="Слой 1" xmlns="http://www.w3.org/2000/svg" viewBox="0 0 411.84 145.8"><defs><style>.cls-1{fill:#ff7f00;}</style></defs><title>logo Advisor AI</title><path class="cls-1" d="M10.69,86.8,6.91,97.17A3.48,3.48,0,0,1,3.3,99.82a3.2,3.2,0,0,1-3.3-3,9.7,9.7,0,0,1,.48-1.93L19,45.49c.88-2.25,2.49-4.1,4.9-4.1s4.1,1.53,5,3.94L47.58,94.92A7,7,0,0,1,47.9,97c0,1.93-1.45,2.81-3.29,2.81A3.76,3.76,0,0,1,41,97.17L37.21,86.8Zm24.43-6.11L24,49.59h-.16l-11,31.1Z"/><path class="cls-1" d="M88.17,40.75V96a3.4,3.4,0,0,1-3.54,3.62,3.48,3.48,0,0,1-3.46-3.46V93.87H81c-1.93,3.54-5.63,5.79-10.69,5.79-12.54,0-19-10.29-19-21.7,0-10.93,6.51-22.1,18.08-22.1A13.75,13.75,0,0,1,81,61.64h.16V40.59a3.5,3.5,0,0,1,3.46-3.54A3.38,3.38,0,0,1,88.17,40.75ZM58.35,78.2c0,7.07,3.21,15.35,11.25,15.35,8.92,0,12.38-8,12.38-15.75S78.12,62,70.25,62C62,62,58.35,70.48,58.35,78.2Z"/><path class="cls-1" d="M100.39,58.83l9.72,29.5,10-30a3.13,3.13,0,0,1,3.29-2.49,3.3,3.3,0,0,1,3.46,3.29,9.35,9.35,0,0,1-.56,2.33l-12.46,35.2c-.64,1.77-1.69,3-3.78,3a3.81,3.81,0,0,1-3.62-2.81L94,61.8a12.56,12.56,0,0,1-.64-2.49,3.3,3.3,0,0,1,3.3-3.46A3.75,3.75,0,0,1,100.39,58.83Z"/><path class="cls-1" d="M139.93,45.81a4.42,4.42,0,0,1-8.84,0,4.51,4.51,0,0,1,4.42-4.42A4.46,4.46,0,0,1,139.93,45.81ZM139,59.47V96a3.5,3.5,0,1,1-7,0V59.63a3.51,3.51,0,0,1,3.46-3.78A3.4,3.4,0,0,1,139,59.47Z"/><path class="cls-1" d="M177.22,63.41a3.31,3.31,0,0,1-3.13,3.13c-1.61,0-7.55-4.58-10.85-4.58-4.34,0-7.72,2-7.72,5.38,0,3.05,3.54,5.3,9.56,7.31,7.55,2.57,13,5.14,13,12.46,0,7.47-7,12.54-15.59,12.54-8.28,0-15.91-4.42-15.91-8.2a3.12,3.12,0,0,1,3.05-3.13c3.21,0,6.19,5.22,12.7,5.22,3.86,0,8.76-1.45,8.76-5.87,0-3.86-4.9-6-10.29-8-6.51-2.41-12.3-5.14-12.3-11.89s6.11-11.89,14-11.89C167.58,55.86,177.22,58.43,177.22,63.41Z"/><path class="cls-1" d="M221.35,77.8c0,11.57-7,21.86-18.73,21.86S183.73,89.29,183.73,77.8c0-12.46,7.55-21.94,18.89-21.94C214.6,55.86,221.35,66.3,221.35,77.8Zm-30.62,0c0,7.47,3.46,15.75,11.73,15.75,8.76,0,11.89-8.28,11.89-15.75,0-8-3.62-15.83-11.73-15.83C194.26,62,190.73,70.08,190.73,77.8Z"/><path class="cls-1" d="M235.9,59.63v3.62h.16c1.85-3.38,5.71-7.39,9.48-7.39a3.85,3.85,0,0,1,4,3.62c0,4-4.74,3.29-8.52,5.46-2.89,1.69-5.14,4.9-5.14,10.37V96a3.32,3.32,0,0,1-3.37,3.62c-2.09,0-3.62-1.21-3.62-3.78V59.63a3.51,3.51,0,1,1,7,0Z"/><polygon class="cls-1" points="318.26 75.93 331.85 75.93 325.33 54.79 318.26 75.93"/><path class="cls-1" d="M408.34,76.4a3.5,3.5,0,0,0,0-7h-8.09V37.58h8.09a3.5,3.5,0,1,0,0-7h-8.09V25.33a13.74,13.74,0,0,0-13.74-13.74h-5.93V3.5a3.5,3.5,0,0,0-7,0v8.09H341.77V3.5a3.5,3.5,0,0,0-7,0v8.09H303V3.5a3.5,3.5,0,0,0-7,0v8.09h-4.59a13.74,13.74,0,0,0-13.74,13.74v5.26h-8.09a3.5,3.5,0,0,0,0,7h8.09V69.4h-8.09a3.5,3.5,0,0,0,0,7h8.09v31.81h-8.09a3.5,3.5,0,0,0,0,7h8.09v5.26a13.74,13.74,0,0,0,13.74,13.74H296v8.09a3.5,3.5,0,0,0,7,0v-8.09h31.81v8.09a3.5,3.5,0,0,0,7,0v-8.09h31.81v8.09a3.5,3.5,0,0,0,7,0v-8.09h5.93a13.74,13.74,0,0,0,13.74-13.74v-5.26h8.09a3.5,3.5,0,0,0,0-7h-8.09V76.4Zm-64.2,23.08c-3.38,0-5.46-2.09-6.83-6.35L335.7,88H314.57l-1.93,5.63c-1.21,3.62-3.46,5.87-6.27,5.87a6,6,0,0,1-6.19-6.27,10.1,10.1,0,0,1,.64-3.78l14.87-40.34c2.09-5.71,5.14-8.44,10-8.44,4.42,0,7.79,2.65,9.56,7.55l14.47,41.07a13,13,0,0,1,.88,4.1C350.57,97.06,347.76,99.48,344.14,99.48Zm25.24-9.24c0,6.19-2.09,9.24-6.51,9.24s-6.51-3.05-6.51-9.24V49.89c0-6.19,2.09-9.24,6.51-9.24s6.51,3.05,6.51,9.24Z"/></svg>