<svg id="Слой_1" data-name="Слой 1" xmlns="http://www.w3.org/2000/svg" viewBox="0 0 145.8 145.8"><defs><style>.cls-1{fill:#a873ff;}.cls-2{fill:none;stroke:#a873ff;stroke-linecap:round;stroke-miterlimit:10;stroke-width:7px;}.cls-3{fill:#fff;}</style></defs><title>logo Risk AI</title><rect class="cls-1" x="11.59" y="11.59" width="122.62" height="122.62" rx="13.74" ry="13.74"/><line class="cls-2" x1="33.42" y1="23.08" x2="33.42" y2="3.5"/><line class="cls-2" x1="72.23" y1="23.08" x2="72.23" y2="3.5"/><line class="cls-2" x1="111.04" y1="23.08" x2="111.04" y2="3.5"/><line class="cls-2" x1="33.42" y1="142.3" x2="33.42" y2="122.72"/><line class="cls-2" x1="72.23" y1="142.3" x2="72.23" y2="122.72"/><line class="cls-2" x1="111.04" y1="142.3" x2="111.04" y2="122.72"/><line class="cls-2" x1="23.08" y1="111.71" x2="3.5" y2="111.71"/><line class="cls-2" x1="23.08" y1="72.9" x2="3.5" y2="72.9"/><line class="cls-2" x1="23.08" y1="34.08" x2="3.5" y2="34.08"/><line class="cls-2" x1="142.3" y1="111.71" x2="122.72" y2="111.71"/><line class="cls-2" x1="142.3" y1="72.9" x2="122.72" y2="72.9"/><line class="cls-2" x1="142.3" y1="34.08" x2="122.72" y2="34.08"/><path class="cls-3" d="M69.18,48.2,83.64,89.27a13,13,0,0,1,.88,4.1c0,3.7-2.81,6.11-6.43,6.11-3.38,0-5.46-2.09-6.83-6.35L69.66,88H48.52l-1.93,5.63c-1.21,3.62-3.46,5.87-6.27,5.87a6,6,0,0,1-6.19-6.27,10.1,10.1,0,0,1,.64-3.78L49.65,49.08c2.09-5.71,5.14-8.44,10-8.44C64,40.65,67.41,43.3,69.18,48.2ZM65.8,75.93,59.29,54.79,52.22,75.93Z"/><path class="cls-3" d="M103.34,49.89V90.23c0,6.19-2.09,9.24-6.51,9.24s-6.51-3.05-6.51-9.24V49.89c0-6.19,2.09-9.24,6.51-9.24S103.34,43.7,103.34,49.89Z"/></svg>