<svg id="Слой_1" data-name="Слой 1" xmlns="http://www.w3.org/2000/svg" viewBox="0 0 145.8 145.8"><defs><style>.cls-1{fill:#ff7f00;}</style></defs><title>logo Advisor AI</title><polygon class="cls-1" points="52.22 75.93 65.8 75.93 59.29 54.79 52.22 75.93"/><path class="cls-1" d="M142.3,76.4a3.5,3.5,0,0,0,0-7h-8.09V37.58h8.09a3.5,3.5,0,1,0,0-7h-8.09V25.33a13.74,13.74,0,0,0-13.74-13.74h-5.93V3.5a3.5,3.5,0,0,0-7,0v8.09H75.73V3.5a3.5,3.5,0,0,0-7,0v8.09H36.92V3.5a3.5,3.5,0,0,0-7,0v8.09H25.33A13.74,13.74,0,0,0,11.59,25.33v5.26H3.5a3.5,3.5,0,0,0,0,7h8.09V69.4H3.5a3.5,3.5,0,0,0,0,7h8.09v31.81H3.5a3.5,3.5,0,0,0,0,7h8.09v5.26a13.74,13.74,0,0,0,13.74,13.74h4.59v8.09a3.5,3.5,0,0,0,7,0v-8.09H68.73v8.09a3.5,3.5,0,0,0,7,0v-8.09h31.81v8.09a3.5,3.5,0,0,0,7,0v-8.09h5.93a13.74,13.74,0,0,0,13.74-13.74v-5.26h8.09a3.5,3.5,0,0,0,0-7h-8.09V76.4ZM78.1,99.48c-3.38,0-5.46-2.09-6.83-6.35L69.66,88H48.52l-1.93,5.63c-1.21,3.62-3.46,5.87-6.27,5.87a6,6,0,0,1-6.19-6.27,10.1,10.1,0,0,1,.64-3.78L49.65,49.08c2.09-5.71,5.14-8.44,10-8.44,4.42,0,7.79,2.65,9.56,7.55L83.64,89.27a13,13,0,0,1,.88,4.1C84.53,97.06,81.72,99.48,78.1,99.48Zm25.24-9.24c0,6.19-2.09,9.24-6.51,9.24s-6.51-3.05-6.51-9.24V49.89c0-6.19,2.09-9.24,6.51-9.24s6.51,3.05,6.51,9.24Z"/></svg>