<svg id="Слой_1" data-name="Слой 1" xmlns="http://www.w3.org/2000/svg" viewBox="0 0 69.2 58.83"><defs><style>.cls-1{fill:#ff7f00;}</style></defs><title>logo Advisor AI</title><path class="cls-1" d="M35,7.55,49.51,48.62a13,13,0,0,1,.88,4.1c0,3.7-2.81,6.11-6.43,6.11-3.38,0-5.46-2.09-6.83-6.35l-1.61-5.14H14.39L12.46,53C11.25,56.58,9,58.83,6.19,58.83A6,6,0,0,1,0,52.56a10.1,10.1,0,0,1,.64-3.78L15.51,8.44C17.6,2.73,20.66,0,25.48,0,29.9,0,33.27,2.65,35,7.55ZM31.67,35.28,25.16,14.14,18.08,35.28Z"/><path class="cls-1" d="M69.2,9.24V49.59c0,6.19-2.09,9.24-6.51,9.24s-6.51-3.05-6.51-9.24V9.24C56.18,3.05,58.27,0,62.69,0S69.2,3.05,69.2,9.24Z"/></svg>