<svg id="Слой_1" data-name="Слой 1" xmlns="http://www.w3.org/2000/svg" viewBox="0 0 84.75 86.71"><defs><style>.cls-1{fill:#ff7f00;}</style></defs><title>logo Advisor AI-32</title><path class="cls-1" d="M84.72,80v.1l.05-.07Z"/><path class="cls-1" d="M73.77,79.75a11.07,11.07,0,0,1-.08-1.54V44.37c0-3.12,0-6.64-1.69-9.37-2-3.34-7.56-6.13-15.69-6.58h0a5.23,5.23,0,0,1,4.63,4.86v3.33c0,.07,0,.15,0,.22v1.94c0,.11,0,.22,0,.33,0,6.54,0,26.34,0,34.26a49.47,49.47,0,0,1-6.17,7.07,7.29,7.29,0,0,1-4.23,2.1c-3.29,0-3.29-2.73-3.29-4.3V44.41c0-3.12,0-6.64-1.71-9.37-1.29-2.1-4-4-7.84-5.2h0a31.7,31.7,0,0,0-8.06-1.41h0a5.23,5.23,0,0,1,4.64,5.16h0s0,42.28,0,42.41a10.34,10.34,0,0,0,.33,2.53v.28c.1.26.22.51.33.77a10.38,10.38,0,0,0,.81,1.75l.1.16a12.56,12.56,0,0,0,1.33,1.79A9.48,9.48,0,0,0,41.19,86h0c.32.11.64.21,1,.29a15.8,15.8,0,0,0,3.88.43A15.12,15.12,0,0,0,54.55,84l.44-.33c.34-.26.68-.5,1-.78a38.82,38.82,0,0,0,5-5.27,9.6,9.6,0,0,0,1.33,4.13l.09.15a11.77,11.77,0,0,0,1.26,1.68c2.22,2.44,4.93,3.17,8.26,3.17a17.24,17.24,0,0,0,7-1.54A5.77,5.77,0,0,1,73.77,79.75Z"/><path class="cls-1" d="M12.49,50.36c6.12,0,9.24-5.6,6.77-11.06-.59-1.26-1.23-2.23-1.67-3A5.23,5.23,0,0,1,19.65,29v0a27,27,0,0,0-7.93,2.75c-4,2.21-7.55,5.34-7.55,10.93C4.16,47.89,8.46,50.36,12.49,50.36Z"/><path class="cls-1" d="M14.62,75.38v0h0V62.16c0-.41,0-.79,0-1.1,0-.64,0-1,0-1h0a5.23,5.23,0,0,1,4.1-5A31.9,31.9,0,0,0,8.2,58.69C3,61.81,0,66,0,72.35c0,4.16,1.17,7.81,4.81,10.8a15.68,15.68,0,0,0,10.28,3.51,25.9,25.9,0,0,0,11.58-3l.69-.4a8.82,8.82,0,0,1-12.74-7.9Z"/><path class="cls-1" d="M66.13,14.57a7.45,7.45,0,0,0,7.29-7.29,7.29,7.29,0,0,0-14.58,0A7.45,7.45,0,0,0,66.13,14.57Z"/></svg>